<svg width="38" height="129" viewBox="0 0 38 129" fill="none" xmlns="http://www.w3.org/2000/svg">
<path d="M18.8636 0C23.8666 0 28.6646 1.98741 32.2022 5.52503C35.7399 9.06265 37.7273 13.8607 37.7273 18.8636C37.7273 23.8666 35.7399 28.6646 32.2022 32.2022C28.6646 35.7399 23.8666 37.7273 18.8636 37.7273C13.8607 37.7273 9.06265 35.7399 5.52503 32.2022C1.98741 28.6646 0 23.8666 0 18.8636C0 13.8607 1.98741 9.06265 5.52503 5.52503C9.06265 1.98741 13.8607 0 18.8636 0ZM26.7816 13.313C26.5864 13.1187 26.3293 12.9988 26.0549 12.9743C25.7806 12.9497 25.5063 13.022 25.2796 13.1786L25.1146 13.313L16.5057 21.9243L12.6245 18.0407L12.4594 17.9039C12.2323 17.7475 11.9576 17.6756 11.6829 17.7008C11.4083 17.726 11.1512 17.8466 10.9563 18.0418C10.7614 18.2369 10.6412 18.4942 10.6164 18.7689C10.5916 19.0435 10.6639 19.3182 10.8207 19.5451L10.9551 19.7101L15.671 24.4261L15.836 24.5605C16.0329 24.6963 16.2665 24.7691 16.5057 24.7691C16.7449 24.7691 16.9785 24.6963 17.1753 24.5605L17.3404 24.4237L26.7816 14.9824L26.9184 14.8174C27.0753 14.5903 27.1476 14.3153 27.1226 14.0404C27.0976 13.7655 26.977 13.5081 26.7816 13.313Z" fill="#FF4200"/>
<path d="M18.8636 91C23.8666 91 28.6646 92.9874 32.2022 96.525C35.7399 100.063 37.7273 104.861 37.7273 109.864C37.7273 114.867 35.7399 119.665 32.2022 123.202C28.6646 126.74 23.8666 128.727 18.8636 128.727C13.8607 128.727 9.06265 126.74 5.52503 123.202C1.98741 119.665 0 114.867 0 109.864C0 104.861 1.98741 100.063 5.52503 96.525C9.06265 92.9874 13.8607 91 18.8636 91ZM26.7816 104.313C26.5864 104.119 26.3293 103.999 26.0549 103.974C25.7806 103.95 25.5063 104.022 25.2796 104.179L25.1146 104.313L16.5057 112.924L12.6245 109.041L12.4594 108.904C12.2323 108.747 11.9576 108.676 11.6829 108.701C11.4083 108.726 11.1512 108.847 10.9563 109.042C10.7614 109.237 10.6412 109.494 10.6164 109.769C10.5916 110.044 10.6639 110.318 10.8207 110.545L10.9551 110.71L15.671 115.426L15.836 115.56C16.0329 115.696 16.2665 115.769 16.5057 115.769C16.7449 115.769 16.9785 115.696 17.1753 115.56L17.3404 115.424L26.7816 105.982L26.9184 105.817C27.0753 105.59 27.1476 105.315 27.1226 105.04C27.0976 104.766 26.977 104.508 26.7816 104.313Z" fill="#FF4200"/>
<path d="M18.8636 45.2734C23.8666 45.2734 28.6646 47.2609 32.2022 50.7985C35.7399 54.3361 37.7273 59.1341 37.7273 64.1371C37.7273 69.14 35.7399 73.9381 32.2022 77.4757C28.6646 81.0133 23.8666 83.0007 18.8636 83.0007C13.8607 83.0007 9.06265 81.0133 5.52503 77.4757C1.98741 73.9381 0 69.14 0 64.1371C0 59.1341 1.98741 54.3361 5.52503 50.7985C9.06265 47.2609 13.8607 45.2734 18.8636 45.2734ZM26.7816 58.5864C26.5864 58.3921 26.3293 58.2722 26.0549 58.2477C25.7806 58.2231 25.5063 58.2954 25.2796 58.452L25.1146 58.5864L16.5057 67.1977L12.6245 63.3141L12.4594 63.1774C12.2323 63.0209 11.9576 62.949 11.6829 62.9742C11.4083 62.9994 11.1512 63.1201 10.9563 63.3152C10.7614 63.5104 10.6412 63.7676 10.6164 64.0423C10.5916 64.317 10.6639 64.5916 10.8207 64.8185L10.9551 64.9836L15.671 69.6995L15.836 69.8339C16.0329 69.9698 16.2665 70.0425 16.5057 70.0425C16.7449 70.0425 16.9785 69.9698 17.1753 69.8339L17.3404 69.6971L26.7816 60.2559L26.9184 60.0908C27.0753 59.8637 27.1476 59.5888 27.1226 59.3139C27.0976 59.0389 26.977 58.7815 26.7816 58.5864Z" fill="#1E1E1E"/>
</svg>
