<svg width="25" height="25" viewBox="0 0 25 25" fill="none" xmlns="http://www.w3.org/2000/svg">
<path fill-rule="evenodd" clip-rule="evenodd" d="M12.4997 15.7712L20.6752 23.9466C21.109 24.3804 21.6974 24.6241 22.3109 24.6241C22.9244 24.6241 23.5128 24.3804 23.9466 23.9466C24.3804 23.5128 24.6241 22.9244 24.6241 22.3109C24.6241 21.6974 24.3804 21.109 23.9466 20.6752L15.768 12.4997L23.945 4.32428C24.1597 4.10948 24.33 3.85449 24.4462 3.57387C24.5624 3.29326 24.6221 2.99251 24.622 2.6888C24.622 2.38509 24.5621 2.08437 24.4458 1.80381C24.3295 1.52325 24.1591 1.26834 23.9443 1.05364C23.7295 0.838935 23.4745 0.668644 23.1939 0.552486C22.9132 0.436328 22.6125 0.376579 22.3088 0.376651C22.0051 0.376723 21.7044 0.436613 21.4238 0.552903C21.1432 0.669193 20.8883 0.839605 20.6736 1.05441L12.4997 9.22987L4.32426 1.05441C4.11104 0.833444 3.85595 0.657154 3.57387 0.535827C3.2918 0.4145 2.98838 0.350565 2.68133 0.347753C2.37428 0.344941 2.06975 0.403308 1.7855 0.519449C1.50125 0.635589 1.24297 0.807177 1.02574 1.0242C0.808514 1.24122 0.636683 1.49934 0.520274 1.78348C0.403866 2.06762 0.345212 2.3721 0.347734 2.67915C0.350257 2.98621 0.413905 3.28968 0.534966 3.57187C0.656027 3.85406 0.832076 4.10932 1.05284 4.32274L9.23138 12.4997L1.05438 20.6767C0.833618 20.8902 0.657569 21.1454 0.536508 21.4276C0.415447 21.7098 0.351798 22.0133 0.349276 22.3203C0.346753 22.6274 0.405408 22.9319 0.521816 23.216C0.638225 23.5001 0.810056 23.7583 1.02728 23.9753C1.24451 24.1923 1.50279 24.3639 1.78704 24.48C2.07129 24.5962 2.37582 24.6545 2.68287 24.6517C2.98992 24.6489 3.29334 24.585 3.57542 24.4637C3.85749 24.3423 4.11258 24.166 4.3258 23.9451L12.4997 15.7712Z" fill="black"/>
</svg>
