<svg width="25" height="23" viewBox="0 0 25 23" fill="none" xmlns="http://www.w3.org/2000/svg">
<path d="M24 11.4994H8.63973M3.21795 11.4994H1M3.21795 11.4994C3.21795 10.8086 3.50349 10.146 4.01177 9.6575C4.52004 9.169 5.20941 8.89457 5.92822 8.89457C6.64702 8.89457 7.33639 9.169 7.84467 9.6575C8.35294 10.146 8.63849 10.8086 8.63849 11.4994C8.63849 12.1902 8.35294 12.8528 7.84467 13.3413C7.33639 13.8298 6.64702 14.1042 5.92822 14.1042C5.20941 14.1042 4.52004 13.8298 4.01177 13.3413C3.50349 12.8528 3.21795 12.1902 3.21795 11.4994ZM24 19.394H16.8538M16.8538 19.394C16.8538 20.085 16.5676 20.7483 16.0592 21.2369C15.5508 21.7255 14.8613 22 14.1423 22C13.4235 22 12.7341 21.7244 12.2259 21.2359C11.7176 20.7474 11.4321 20.0848 11.4321 19.394M16.8538 19.394C16.8538 18.703 16.5676 18.0409 16.0592 17.5522C15.5508 17.0636 14.8613 16.7891 14.1423 16.7891C13.4235 16.7891 12.7341 17.0636 12.2259 17.5521C11.7176 18.0406 11.4321 18.7031 11.4321 19.394M11.4321 19.394H1M24 3.60484H20.1397M14.7179 3.60484H1M14.7179 3.60484C14.7179 2.91399 15.0035 2.25144 15.5118 1.76294C16.02 1.27444 16.7094 1 17.4282 1C17.7841 1 18.1366 1.06738 18.4654 1.19828C18.7942 1.32919 19.093 1.52106 19.3447 1.76294C19.5963 2.00482 19.796 2.29198 19.9322 2.60801C20.0684 2.92404 20.1385 3.26276 20.1385 3.60484C20.1385 3.94691 20.0684 4.28563 19.9322 4.60166C19.796 4.9177 19.5963 5.20485 19.3447 5.44673C19.093 5.68861 18.7942 5.88049 18.4654 6.01139C18.1366 6.1423 17.7841 6.20967 17.4282 6.20967C16.7094 6.20967 16.02 5.93524 15.5118 5.44673C15.0035 4.95823 14.7179 4.29568 14.7179 3.60484Z" stroke="black" stroke-width="1.5" stroke-miterlimit="10" stroke-linecap="round"/>
</svg>
