<svg width="103" height="19" viewBox="0 0 103 19" fill="none" xmlns="http://www.w3.org/2000/svg">
<path d="M43.2475 0H27.429C27.2964 0 27.1786 0.111696 27.1491 0.255305C25.9856 6.28688 25.853 6.43049 18.2236 6.43049C17.5903 6.43049 17.605 6.0954 17.6344 5.90392L18.7244 0.526566C18.8127 0.127653 18.5623 0 18.1499 0H10.6826C10.6089 0 10.5647 0.04787 10.5353 0.0957396L10.2407 1.56374C9.23915 6.27092 9.31279 6.27092 4.29034 6.39857C3.52446 6.41453 1.62447 6.43049 1.10897 6.43049C1.03533 6.43049 0.961683 6.49431 0.946954 6.5741L0.0190524 11.1536C-0.0987763 11.6961 0.35781 11.6961 0.622924 11.6961C8.26706 11.6961 8.20815 11.6961 7.02986 17.5522C6.98567 17.7596 6.8973 18.1107 7.64846 18.1107L14.9391 18.1266C15.0717 18.1266 15.1895 18.0309 15.219 17.8873L16.3236 12.4621C16.4267 11.9834 16.8391 11.7121 17.4577 11.7121C25.5142 11.7121 24.9546 11.1217 23.6437 17.6001C23.5406 18.1266 23.9825 18.1266 24.2329 18.1266C24.2329 18.1266 40.0661 18.1266 40.0808 18.1266C40.1397 18.1266 40.2428 18.1107 40.3017 17.9192L41.4506 12.2546C41.4948 12.0631 41.5537 11.7281 40.8614 11.7281H25.529C24.9251 11.7281 24.9104 11.393 24.9546 11.2015L25.8677 6.63792C25.8972 6.52623 25.9856 6.44644 26.1476 6.44644H42.5405C42.6289 6.44644 42.6289 6.41453 42.6436 6.35071L43.8219 0.542523C43.925 2.2826e-07 43.4389 0 43.2475 0ZM16.6182 10.9302C16.5298 11.4089 16.1027 11.6802 15.4841 11.6802H8.97404C8.29652 11.6802 8.35543 11.3611 8.39962 11.1536L9.34225 6.51027C9.35698 6.4624 9.40116 6.41453 9.48954 6.41453H16.8391C17.4135 6.41453 17.4577 6.74962 17.4135 6.9411L16.6182 10.9302Z" fill="black"/>
<path d="M53.5567 8.07401H59.2861L59.6838 6.01562H54.7644C54.2931 6.01562 54.0574 5.88796 54.0574 5.60075C54.0574 5.55288 54.0574 5.52096 54.0722 5.47309L54.6319 2.60092C54.7055 2.23392 54.9412 2.05839 55.545 2.05839H60.4644L60.8768 0H55.1474C53.0117 0 52.2016 0.351044 51.9071 1.93074L51.0823 6.14327C51.0381 6.38262 51.0086 6.60601 51.0086 6.79749C50.9792 7.83466 51.7451 8.07401 53.5567 8.07401Z" fill="#1E1E1E"/>
<path d="M63.1025 8.07401L64.2661 2.05839H67.5064L66.3281 8.07401H69.1854L70.7614 0H61.8064L60.2305 8.07401H63.1025Z" fill="#1E1E1E"/>
<path d="M78.4062 0H74.6357C72.5295 0 71.7195 0.319131 71.4102 1.93074L70.5854 6.14327C70.5412 6.39857 70.5117 6.62197 70.5117 6.79749C70.5117 7.83466 71.2482 8.07401 73.0598 8.07401H76.8303C78.9512 8.07401 79.7466 7.75488 80.0559 6.14327L80.8807 1.93074C80.9248 1.69139 80.9543 1.468 80.9543 1.27652C80.9543 0.239348 80.2179 0 78.4062 0ZM77.9349 2.60092L77.3752 5.47309C77.3016 5.88797 77.0807 6.01562 76.4326 6.01562H74.297C73.7373 6.01562 73.5458 5.91988 73.5458 5.66457C73.5458 5.60075 73.5605 5.53692 73.5753 5.47309L74.135 2.60092C74.2233 2.17009 74.4295 2.05839 75.0629 2.05839H77.1985C77.7582 2.05839 77.9644 2.15413 77.9644 2.44135C77.9644 2.47326 77.9497 2.53709 77.9349 2.60092Z" fill="#1E1E1E"/>
<path d="M88.3482 0H82.2947L80.7188 8.07401H83.5614L84.0621 5.44118H87.273C89.3792 5.44118 90.204 5.12205 90.5133 3.51044L90.8226 1.91479C90.8667 1.65948 90.8962 1.45205 90.8962 1.24461C90.8962 0.239349 90.1598 0 88.3482 0ZM87.8621 2.58496L87.8032 2.88813C87.7296 3.303 87.5675 3.44661 87.1257 3.44661H84.4598L84.7397 2.04244H87.4055C87.759 2.04244 87.8916 2.15413 87.8916 2.39348C87.8916 2.47326 87.8916 2.53709 87.8621 2.58496Z" fill="#1E1E1E"/>
<path d="M92.1624 0L91.75 2.05839H95.6236L94.4601 8.07401H97.3027L98.481 2.05839H102.561L102.958 0H92.1624Z" fill="#1E1E1E"/>
<path d="M52.041 15.6398C52.041 15.5919 52.041 15.56 52.0557 15.5122L52.6154 12.64C52.6891 12.273 52.9247 12.0975 53.5286 12.0975H58.4479L58.8603 10.0391H53.1309C50.9953 10.0391 50.1852 10.3901 49.8906 11.9698L49.0658 16.1823C49.0216 16.4217 48.9922 16.6451 48.9922 16.8366C48.9922 17.8737 49.7433 18.1131 51.555 18.1131H57.2844L57.6821 16.0547H52.7627C52.2767 16.0547 52.041 15.9111 52.041 15.6398Z" fill="#1E1E1E"/>
<path d="M68.0212 10.9968H66.6514L66.8429 10.0234H64.0592L63.8677 10.9968H62.4832C60.3771 10.9968 59.5817 11.3159 59.2577 12.9275L58.8306 15.1934C58.7864 15.4487 58.7422 15.6721 58.7422 15.8476C58.7422 16.8847 59.4786 17.1241 61.2902 17.1241H62.6747L62.4832 18.0974H65.2817L65.4732 17.1241H66.8429C68.9786 17.1241 69.7444 16.805 70.0537 15.1934L70.4956 12.9275C70.5398 12.6882 70.5545 12.4648 70.5545 12.2733C70.5545 11.2361 69.8034 10.9968 68.0212 10.9968ZM63.0724 15.0817H62.4096C61.8499 15.0817 61.6732 14.9859 61.6732 14.7306C61.6732 14.6668 61.6879 14.603 61.6879 14.5391L61.8646 13.6296C61.953 13.1988 62.1739 13.0871 62.8073 13.0871H63.4701L63.0724 15.0817ZM67.6235 13.6137L67.4468 14.5232C67.3731 14.9221 67.1964 15.0657 66.5042 15.0657H65.8561L66.2538 13.0552H66.9018C67.432 13.0552 67.653 13.135 67.653 13.4381C67.653 13.502 67.653 13.5498 67.6235 13.6137Z" fill="#1E1E1E"/>
<path d="M73.8831 15.0178H76.9172L77.3001 13.0871H74.266L74.4575 12.0818H80.2017L80.6141 10.0234H71.9978L70.4219 18.0974H79.0381L79.421 16.055H73.6769L73.8831 15.0178Z" fill="#1E1E1E"/>
<path d="M87.6685 10.0234H81.615L80.0391 18.0974H82.8817L83.3825 15.4646H86.5933C88.6995 15.4646 89.5095 15.1455 89.8336 13.5339L90.1281 11.9382C90.1723 11.6829 90.2165 11.4595 90.2165 11.268C90.2165 10.2628 89.4801 10.0234 87.6685 10.0234ZM87.1824 12.6244L87.1235 12.9275C87.0499 13.3424 86.8879 13.486 86.446 13.486H83.7801L84.06 12.0818H86.7258C87.0793 12.0818 87.2119 12.1935 87.2119 12.4329C87.2119 12.4967 87.1972 12.5605 87.1824 12.6244Z" fill="#1E1E1E"/>
<path d="M98.1257 10.0234H94.3552C92.249 10.0234 91.4389 10.3426 91.1296 11.9542L89.9219 18.0974H92.7645L93.1622 16.055H96.9621L96.5645 18.0974H99.3924L100.585 11.9542C100.63 11.7148 100.659 11.4914 100.659 11.3C100.674 10.2628 99.9373 10.0234 98.1257 10.0234ZM97.6544 12.6244L97.3598 14.1402V14.0924H93.5598L93.8544 12.6244C93.9428 12.1935 94.149 12.0818 94.7823 12.0818H96.918C97.4776 12.0818 97.6838 12.1776 97.6838 12.4648C97.6691 12.4967 97.6544 12.5605 97.6544 12.6244Z" fill="#1E1E1E"/>
</svg>
