<svg width="145" height="27" viewBox="0 0 145 27" fill="none" xmlns="http://www.w3.org/2000/svg">
<path d="M61.4792 0.613281H38.9921C38.8037 0.613281 38.6362 0.772373 38.5943 0.976918C36.9403 9.56783 36.7518 9.77237 25.9061 9.77237C25.0058 9.77237 25.0267 9.2951 25.0686 9.02237L26.618 1.36328C26.7436 0.7951 26.3877 0.613281 25.8014 0.613281H15.186C15.0813 0.613281 15.0185 0.681464 14.9766 0.749645L14.5578 2.84055C13.1341 9.5451 13.2388 9.5451 6.09902 9.72692C5.01026 9.74965 2.30929 9.77237 1.57647 9.77237C1.47179 9.77237 1.3671 9.86328 1.34616 9.97692L0.0270843 16.4996C-0.140417 17.2724 0.508651 17.2724 0.88553 17.2724C11.7522 17.2724 11.6684 17.2724 9.99343 25.6133C9.93062 25.9087 9.80499 26.4087 10.8728 26.4087L21.237 26.4315C21.4254 26.4315 21.5929 26.2951 21.6348 26.0906L23.2051 18.3633C23.3517 17.6815 23.9379 17.2951 24.8173 17.2951C36.2702 17.2951 35.4746 16.4542 33.6112 25.6815C33.4646 26.4315 34.0927 26.4315 34.4487 26.4315C34.4487 26.4315 56.9567 26.4315 56.9776 26.4315C57.0614 26.4315 57.2079 26.4087 57.2917 26.136L58.9248 18.0678C58.9876 17.7951 59.0714 17.3178 58.0873 17.3178H36.2912C35.4327 17.3178 35.4118 16.8406 35.4746 16.5678L36.7728 10.0678C36.8146 9.90874 36.9403 9.7951 37.1706 9.7951H60.4742C60.5999 9.7951 60.5999 9.74965 60.6208 9.65874L62.2958 1.38601C62.4424 0.613282 61.7514 0.613281 61.4792 0.613281ZM23.6239 16.1815C23.4982 16.8633 22.8911 17.2496 22.0117 17.2496H12.7572C11.7941 17.2496 11.8778 16.7951 11.9406 16.4996L13.2806 9.88601C13.3016 9.81783 13.3644 9.74965 13.49 9.74965H23.9379C24.7545 9.74965 24.8173 10.2269 24.7545 10.4996L23.6239 16.1815Z" fill="#FF4200"/>
<path d="M76.1351 12.1133H84.2799L84.8452 9.18146H77.852C77.182 9.18146 76.847 8.99965 76.847 8.59055C76.847 8.52237 76.847 8.47692 76.8679 8.40874L77.6635 4.31783C77.7682 3.7951 78.1032 3.5451 78.9617 3.5451H85.9549L86.5411 0.613281H78.3964C75.3604 0.613281 74.2088 1.11328 73.7901 3.36328L72.6176 9.36328C72.5548 9.70419 72.5129 10.0224 72.5129 10.2951C72.471 11.7724 73.5598 12.1133 76.1351 12.1133Z" fill="#1E1E1E"/>
<path d="M89.7039 12.1133L91.358 3.5451H95.9643L94.2893 12.1133H98.3512L100.592 0.613281H87.8614L85.6211 12.1133H89.7039Z" fill="#1E1E1E"/>
<path d="M111.457 0.613281H106.097C103.103 0.613281 101.951 1.06783 101.512 3.36328L100.339 9.36328C100.276 9.72692 100.234 10.0451 100.234 10.2951C100.234 11.7724 101.281 12.1133 103.857 12.1133H109.217C112.232 12.1133 113.362 11.6587 113.802 9.36328L114.975 3.36328C115.037 3.02237 115.079 2.70419 115.079 2.43146C115.079 0.95419 114.032 0.613281 111.457 0.613281ZM110.787 4.31783L109.991 8.40874C109.887 8.99965 109.573 9.18146 108.651 9.18146H105.615C104.82 9.18146 104.548 9.0451 104.548 8.68146C104.548 8.59055 104.568 8.49965 104.589 8.40874L105.385 4.31783C105.511 3.70419 105.804 3.5451 106.704 3.5451H109.74C110.536 3.5451 110.829 3.68146 110.829 4.09055C110.829 4.13601 110.808 4.22692 110.787 4.31783Z" fill="#1E1E1E"/>
<path d="M125.592 0.613281H116.986L114.746 12.1133H118.787L119.499 8.36328H124.063C127.057 8.36328 128.23 7.90874 128.67 5.61328L129.109 3.34055C129.172 2.97692 129.214 2.68146 129.214 2.38601C129.214 0.954191 128.167 0.613281 125.592 0.613281ZM124.901 4.2951L124.817 4.72692C124.712 5.31783 124.482 5.52237 123.854 5.52237H120.064L120.462 3.52237H124.252C124.754 3.52237 124.943 3.68146 124.943 4.02237C124.943 4.13601 124.943 4.22692 124.901 4.2951Z" fill="#1E1E1E"/>
<path d="M131.012 0.613281L130.426 3.5451H135.932L134.278 12.1133H138.319L139.994 3.5451H145.794L146.359 0.613281H131.012Z" fill="#1E1E1E"/>
<path d="M73.9786 22.8835C73.9786 22.8153 73.9786 22.7699 73.9996 22.7017L74.7952 18.6108C74.8999 18.0881 75.2349 17.8381 76.0933 17.8381H83.0865L83.6728 14.9062H75.528C72.4921 14.9062 71.3405 15.4062 70.9217 17.6562L69.7492 23.6562C69.6864 23.9972 69.6445 24.3153 69.6445 24.5881C69.6445 26.0653 70.7124 26.4063 73.2877 26.4063H81.4325L81.9978 23.4744H75.0046C74.3136 23.4744 73.9786 23.2699 73.9786 22.8835Z" fill="#1E1E1E"/>
<path d="M96.6947 16.2731H94.7475L95.0196 14.8867H91.0624L90.7902 16.2731H88.8221C85.828 16.2731 84.6974 16.7276 84.2367 19.0231L83.6295 22.2504C83.5667 22.614 83.5039 22.9322 83.5039 23.1822C83.5039 24.6594 84.5508 25.0004 87.1261 25.0004H89.0943L88.8221 26.3867H92.8002L93.0724 25.0004H95.0196C98.0556 25.0004 99.1444 24.5458 99.5841 22.2504L100.212 19.0231C100.275 18.6822 100.296 18.364 100.296 18.0913C100.296 16.614 99.2281 16.2731 96.6947 16.2731ZM89.6596 22.0913H88.7174C87.9218 22.0913 87.6705 21.9549 87.6705 21.5913C87.6705 21.5004 87.6914 21.4094 87.6914 21.3185L87.9427 20.0231C88.0683 19.4094 88.3824 19.2504 89.2827 19.2504H90.2249L89.6596 22.0913ZM96.1293 20.0004L95.8781 21.2958C95.7734 21.864 95.5221 22.0685 94.5381 22.0685H93.6168L94.1821 19.2049H95.1034C95.8571 19.2049 96.1712 19.3185 96.1712 19.7504C96.1712 19.8413 96.1712 19.9094 96.1293 20.0004Z" fill="#1E1E1E"/>
<path d="M105.03 22.0004H109.343L109.887 19.2504H105.574L105.846 17.8185H114.012L114.598 14.8867H102.35L100.109 26.3867H112.358L112.902 23.4776H104.737L105.03 22.0004Z" fill="#1E1E1E"/>
<path d="M124.627 14.8867H116.022L113.781 26.3867H117.822L118.534 22.6367H123.099C126.093 22.6367 127.244 22.1822 127.705 19.8867L128.124 17.614C128.186 17.2504 128.249 16.9322 128.249 16.6594C128.249 15.2276 127.202 14.8867 124.627 14.8867ZM123.936 18.5913L123.852 19.0231C123.748 19.614 123.517 19.8185 122.889 19.8185H119.099L119.497 17.8185H123.287C123.789 17.8185 123.978 17.9776 123.978 18.3185C123.978 18.4094 123.957 18.5004 123.936 18.5913Z" fill="#1E1E1E"/>
<path d="M139.494 14.8867H134.134C131.14 14.8867 129.989 15.3413 129.549 17.6367L127.832 26.3867H131.873L132.438 23.4776H137.84L137.275 26.3867H141.295L142.991 17.6367C143.054 17.2958 143.096 16.9776 143.096 16.7049C143.117 15.2276 142.07 14.8867 139.494 14.8867ZM138.824 18.5913L138.406 20.7504V20.6822H133.004L133.422 18.5913C133.548 17.9776 133.841 17.8185 134.741 17.8185H137.777C138.573 17.8185 138.866 17.9549 138.866 18.364C138.845 18.4094 138.824 18.5004 138.824 18.5913Z" fill="#1E1E1E"/>
</svg>
