<svg width="43" height="42" viewBox="0 0 43 42" fill="none" xmlns="http://www.w3.org/2000/svg">
<path d="M23.3982 0.960938C25.785 0.967093 26.9964 0.979403 28.0424 1.00813L28.454 1.02249C28.9292 1.0389 29.3981 1.05942 29.9646 1.08404C32.2219 1.18663 33.7622 1.53132 35.1137 2.0381C36.5139 2.55924 37.6935 3.26504 38.8731 4.40376C39.9524 5.42908 40.7872 6.66985 41.3194 8.03944C41.8434 9.3464 42.1998 10.836 42.3059 13.0211C42.3314 13.5668 42.3526 14.0203 42.3695 14.4819L42.3823 14.8799C42.4141 15.8894 42.4268 17.0609 42.4311 19.3692L42.4332 20.8998V23.5875C42.4384 25.0841 42.4221 26.5806 42.3844 28.0767L42.3717 28.4748C42.3547 28.9364 42.3335 29.3899 42.308 29.9356C42.2019 32.1207 41.8413 33.6082 41.3194 34.9172C40.7872 36.2868 39.9524 37.5276 38.8731 38.5529C37.8129 39.5966 36.5299 40.404 35.1137 40.9186C33.7622 41.4254 32.2219 41.7701 29.9646 41.8726L28.454 41.9342L28.0424 41.9465C26.9964 41.9752 25.785 41.9896 23.3982 41.9937L21.8155 41.9958H19.0383C17.4901 42.001 15.9419 41.9853 14.3941 41.9486L13.9825 41.9363C13.4789 41.9178 12.9754 41.8966 12.472 41.8726C10.2146 41.7701 8.6743 41.4254 7.32072 40.9186C5.90526 40.4037 4.62299 39.5964 3.56337 38.5529C2.48336 37.5278 1.6478 36.287 1.11505 34.9172C0.591012 33.6103 0.234583 32.1207 0.128503 29.9356L0.0648547 28.4748L0.0542469 28.0767C0.0151375 26.5806 -0.00254442 25.0841 0.00120676 23.5875V19.3692C-0.0046656 17.8726 0.0108944 16.3761 0.0478821 14.8799L0.0627332 14.4819C0.079706 14.0203 0.100922 13.5668 0.126381 13.0211C0.232461 10.836 0.58889 9.34845 1.11292 8.03944C1.64692 6.66929 2.48395 5.42847 3.56549 4.40376C4.6245 3.36055 5.90602 2.55324 7.32072 2.0381C8.6743 1.53132 10.2125 1.18663 12.472 1.08404C13.0363 1.05942 13.5073 1.0389 13.9825 1.02249L14.3941 1.01018C15.9412 0.973725 17.4887 0.957994 19.0362 0.962989L23.3982 0.960938ZM21.2172 11.2196C18.4038 11.2196 15.7056 12.3005 13.7162 14.2243C11.7268 16.1482 10.6092 18.7576 10.6092 21.4783C10.6092 24.1991 11.7268 26.8085 13.7162 28.7323C15.7056 30.6562 18.4038 31.737 21.2172 31.737C24.0306 31.737 26.7288 30.6562 28.7182 28.7323C30.7076 26.8085 31.8252 24.1991 31.8252 21.4783C31.8252 18.7576 30.7076 16.1482 28.7182 14.2243C26.7288 12.3005 24.0306 11.2196 21.2172 11.2196ZM21.2172 15.3231C22.053 15.323 22.8807 15.4821 23.653 15.7913C24.4252 16.1005 25.127 16.5538 25.7181 17.1252C26.3092 17.6967 26.7782 18.3752 27.0982 19.1219C27.4181 19.8686 27.5829 20.669 27.5831 21.4773C27.5832 22.2856 27.4187 23.0861 27.099 23.8329C26.7792 24.5797 26.3105 25.2584 25.7196 25.83C25.1287 26.4017 24.4271 26.8552 23.6549 27.1646C22.8828 27.4741 22.0552 27.6334 21.2193 27.6336C19.5313 27.6336 17.9124 26.9851 16.7187 25.8307C15.5251 24.6764 14.8545 23.1108 14.8545 21.4783C14.8545 19.8459 15.5251 18.2803 16.7187 17.1259C17.9124 15.9716 19.5313 15.3231 21.2193 15.3231M32.3577 8.14203C31.6544 8.14203 30.9798 8.41224 30.4825 8.89321C29.9851 9.37418 29.7057 10.0265 29.7057 10.7067C29.7057 11.3869 29.9851 12.0392 30.4825 12.5202C30.9798 13.0012 31.6544 13.2714 32.3577 13.2714C33.0611 13.2714 33.7356 13.0012 34.233 12.5202C34.7303 12.0392 35.0097 11.3869 35.0097 10.7067C35.0097 10.0265 34.7303 9.37418 34.233 8.89321C33.7356 8.41224 33.0611 8.14203 32.3577 8.14203Z" fill="black"/>
</svg>
