<svg width="617" height="468" viewBox="0 0 617 468" fill="none" xmlns="http://www.w3.org/2000/svg">
<rect x="460.293" width="145.581" height="145.581" rx="44" transform="rotate(42.4676 460.293 0)" fill="#F3F3F3"/>
<path d="M520.687 96.7102L449.198 99.9752L447.77 66.6096L423.941 67.698L426.388 124.896L521.706 120.543L520.687 96.7102Z" fill="#FF4200"/>
<rect y="401.613" width="145.581" height="145.581" rx="44" transform="rotate(-62.9122 0 401.613)" fill="#F3F3F3"/>
<path d="M77.2287 317.734L99.3367 385.797L67.5446 396.022L74.9139 418.71L129.415 401.18L99.9373 310.43L77.2287 317.734Z" fill="#FF4200"/>
<rect x="532.871" y="187" width="103.687" height="103.687" rx="28" transform="rotate(36.6351 532.871 187)" fill="#010101"/>
<path d="M582.662 251.151L532.246 258.639L528.82 235.101L512.014 237.597L517.888 277.947L585.109 267.964L582.662 251.151Z" fill="white"/>
<rect x="214" y="123.094" width="70.1899" height="70.1899" rx="18" transform="rotate(-35.8354 214 123.094)" fill="#010101"/>
<path d="M265.563 104.034L260.116 138.104L244.224 135.517L242.409 146.874L269.653 151.309L276.914 105.882L265.563 104.034Z" fill="white"/>
<rect x="195" y="226.289" width="230.323" height="230.323" rx="44" transform="rotate(-15 195 226.289)" fill="#FF4200"/>
<path d="M375.38 228.015L318.912 326.147L273.193 299.663L254.37 332.374L332.746 377.774L408.037 246.932L375.38 228.015Z" fill="white"/>
</svg>
