<svg width="63" height="26" viewBox="0 0 63 26" fill="none" xmlns="http://www.w3.org/2000/svg">
<path d="M61.4792 0H38.9921C38.8037 0 38.6362 0.159091 38.5943 0.363637C36.9403 8.95455 36.7518 9.15909 25.9061 9.15909C25.0058 9.15909 25.0267 8.68182 25.0686 8.40909L26.618 0.750001C26.7436 0.181819 26.3877 0 25.8014 0H15.186C15.0813 0 15.0185 0.0681823 14.9766 0.136364L14.5578 2.22727C13.1341 8.93182 13.2388 8.93182 6.09902 9.11364C5.01026 9.13636 2.30929 9.15909 1.57647 9.15909C1.47179 9.15909 1.3671 9.25 1.34616 9.36364L0.0270843 15.8864C-0.140417 16.6591 0.508651 16.6591 0.88553 16.6591C11.7522 16.6591 11.6684 16.6591 9.99343 25C9.93062 25.2955 9.80499 25.7955 10.8728 25.7955L21.237 25.8182C21.4254 25.8182 21.5929 25.6818 21.6348 25.4773L23.2051 17.75C23.3517 17.0682 23.9379 16.6818 24.8173 16.6818C36.2702 16.6818 35.4746 15.8409 33.6112 25.0682C33.4646 25.8182 34.0927 25.8182 34.4487 25.8182C34.4487 25.8182 56.9567 25.8182 56.9776 25.8182C57.0614 25.8182 57.2079 25.7955 57.2917 25.5227L58.9248 17.4545C58.9876 17.1818 59.0714 16.7045 58.0873 16.7045H36.2912C35.4327 16.7045 35.4118 16.2273 35.4746 15.9545L36.7728 9.45455C36.8146 9.29545 36.9403 9.18182 37.1706 9.18182H60.4742C60.5999 9.18182 60.5999 9.13636 60.6208 9.04546L62.2958 0.772728C62.4424 3.25116e-07 61.7514 0 61.4792 0ZM23.6239 15.5682C23.4982 16.25 22.8911 16.6364 22.0117 16.6364H12.7572C11.7941 16.6364 11.8778 16.1818 11.9406 15.8864L13.2806 9.27273C13.3016 9.20455 13.3644 9.13637 13.49 9.13637H23.9379C24.7545 9.13637 24.8173 9.61364 24.7545 9.88636L23.6239 15.5682Z" fill="#FF4200"/>
</svg>
