<svg width="16" height="17" viewBox="0 0 16 17" fill="none" xmlns="http://www.w3.org/2000/svg">
<path d="M8 0.945312C10.1217 0.945313 12.1566 1.78817 13.6569 3.28846C15.1571 4.78875 16 6.82358 16 8.94531C16 11.067 15.1571 13.1019 13.6569 14.6022C12.1566 16.1025 10.1217 16.9453 8 16.9453C5.87827 16.9453 3.84344 16.1025 2.34315 14.6022C0.842855 13.1019 0 11.067 0 8.94531C0 6.82358 0.842855 4.78875 2.34315 3.28846C3.84344 1.78817 5.87827 0.945313 8 0.945312ZM11.358 6.59131C11.2752 6.50889 11.1662 6.45806 11.0498 6.44765C10.9334 6.43724 10.8171 6.4679 10.721 6.53431L10.651 6.59131L7 10.2433L5.354 8.59631L5.284 8.53831C5.18769 8.47196 5.07116 8.44147 4.95469 8.45215C4.83822 8.46283 4.72918 8.514 4.64653 8.59676C4.56389 8.67952 4.51288 8.78864 4.50237 8.90512C4.49185 9.02161 4.52251 9.13809 4.589 9.23431L4.646 9.30431L6.646 11.3043L6.716 11.3613C6.7995 11.4189 6.89855 11.4498 7 11.4498C7.10145 11.4498 7.2005 11.4189 7.284 11.3613L7.354 11.3033L11.358 7.29931L11.416 7.22931C11.4826 7.133 11.5132 7.01639 11.5026 6.8998C11.492 6.78322 11.4408 6.67404 11.358 6.59131Z" fill="black"/>
</svg>
