<svg width="18" height="17" viewBox="0 0 18 17" fill="none" xmlns="http://www.w3.org/2000/svg">
<path d="M10.705 1.23354C10.6115 1.14128 10.5007 1.06835 10.3791 1.0189C10.2574 0.96945 10.1271 0.944453 9.99578 0.945335C9.86443 0.946217 9.73455 0.972962 9.61353 1.02404C9.49252 1.07512 9.38275 1.14954 9.2905 1.24304C9.19825 1.33654 9.12531 1.4473 9.07586 1.56898C9.02641 1.69067 9.00142 1.82091 9.0023 1.95226C9.00318 2.0836 9.02992 2.21349 9.081 2.3345C9.13208 2.45552 9.2065 2.56528 9.3 2.65754L14.67 7.94954H1C0.734784 7.94954 0.48043 8.05489 0.292893 8.24243C0.105357 8.42997 0 8.68432 0 8.94954C0 9.21475 0.105357 9.46911 0.292893 9.65664C0.48043 9.84418 0.734784 9.94954 1 9.94954H14.665L9.3 15.2345C9.12061 15.4226 9.02145 15.673 9.02353 15.9329C9.02561 16.1927 9.12877 16.4416 9.31116 16.6267C9.49354 16.8118 9.74083 16.9187 10.0006 16.9246C10.2604 16.9305 10.5123 16.8351 10.703 16.6585L17.628 9.83654C17.7459 9.72025 17.8396 9.58168 17.9035 9.4289C17.9674 9.27611 18.0003 9.11215 18.0003 8.94654C18.0003 8.78092 17.9674 8.61696 17.9035 8.46418C17.8396 8.31139 17.7459 8.17283 17.628 8.05654L10.705 1.23354Z" fill="white"/>
</svg>
