<svg width="67" height="26" viewBox="0 0 67 26" fill="none" xmlns="http://www.w3.org/2000/svg">
<path d="M65.6387 0.417969H41.9681C41.7753 0.417969 41.5824 0.562594 41.5342 0.75543C39.7987 9.09559 39.6059 9.28842 28.1803 9.28842C27.2644 9.28842 27.2643 8.80633 27.3125 8.56529L28.9517 1.1411C29.0963 0.562596 28.7106 0.417969 28.0839 0.417969H16.8994C16.803 0.417969 16.7066 0.466179 16.7066 0.562597L16.2727 2.58737C14.7782 9.09559 14.8746 9.09559 7.35404 9.24022C6.19703 9.28843 3.35268 9.28842 2.58134 9.28842C2.48492 9.28842 2.3885 9.38484 2.3403 9.48126L0.942252 15.7966C0.749416 16.568 1.47253 16.568 1.85821 16.568C13.2837 16.568 13.2355 16.568 11.4518 24.6671C11.4036 24.9564 11.259 25.4384 12.3678 25.4384H23.263C23.4558 25.4384 23.6487 25.2938 23.6487 25.101L25.2878 17.6286C25.4324 16.9537 26.0591 16.568 26.9751 16.568C39.0274 16.568 38.2078 15.7484 36.2312 24.7153C36.0866 25.4384 36.7615 25.4384 37.099 25.4384C37.099 25.4384 60.7696 25.4384 60.8178 25.4384C60.9142 25.4384 61.0589 25.3902 61.1553 25.1492L62.8908 17.3393C62.939 17.0501 63.0354 16.6162 62.023 16.6162H39.0756C38.1596 16.6162 38.1596 16.1341 38.2078 15.8931L39.5576 9.57768C39.6059 9.43305 39.7505 9.33663 39.9915 9.33663H64.5299C64.6745 9.33663 64.6745 9.28842 64.6745 9.19201L66.4583 1.18931C66.6511 0.417964 65.928 0.417969 65.6387 0.417969ZM25.8181 15.5074C25.6735 16.1823 25.0467 16.5198 24.1308 16.5198H14.3925C13.3802 16.5198 13.4766 16.0859 13.5248 15.7966L14.9229 9.38484C14.9229 9.33663 15.0193 9.24022 15.1157 9.24022H26.1073C26.9751 9.24022 27.0233 9.72231 26.9751 9.96335L25.8181 15.5074Z" fill="#FF4200"/>
</svg>
