<svg width="676" height="192" viewBox="0 0 676 192" fill="none" xmlns="http://www.w3.org/2000/svg">
<path d="M96 0C121.461 0 145.879 10.1143 163.882 28.1178C181.886 46.1212 192 70.5392 192 96C192 121.461 181.886 145.879 163.882 163.882C145.879 181.886 121.461 192 96 192C70.5392 192 46.1212 181.886 28.1178 163.882C10.1143 145.879 0 121.461 0 96C0 70.5392 10.1143 46.1212 28.1178 28.1178C46.1212 10.1143 70.5392 0 96 0ZM136.296 67.752C135.302 66.7629 133.994 66.153 132.598 66.028C131.201 65.9031 129.805 66.271 128.652 67.068L127.812 67.752L84 111.576L64.248 91.812L63.408 91.116C62.2522 90.3198 60.8539 89.9539 59.4562 90.0821C58.0586 90.2102 56.7501 90.8243 55.7584 91.8174C54.7667 92.8105 54.1545 94.1199 54.0284 95.5177C53.9022 96.9156 54.2701 98.3134 55.068 99.468L55.752 100.308L79.752 124.308L80.592 124.992C81.594 125.683 82.7826 126.054 84 126.054C85.2174 126.054 86.406 125.683 87.408 124.992L88.248 124.296L136.296 76.248L136.992 75.408C137.791 74.2523 138.158 72.8529 138.031 71.4539C137.904 70.0548 137.29 68.7448 136.296 67.752Z" fill="#FF4200"/>
<path d="M338 0C363.461 0 387.879 10.1143 405.882 28.1178C423.886 46.1212 434 70.5392 434 96C434 121.461 423.886 145.879 405.882 163.882C387.879 181.886 363.461 192 338 192C312.539 192 288.121 181.886 270.118 163.882C252.114 145.879 242 121.461 242 96C242 70.5392 252.114 46.1212 270.118 28.1178C288.121 10.1143 312.539 0 338 0ZM378.296 67.752C377.302 66.7629 375.994 66.153 374.598 66.028C373.201 65.9031 371.805 66.271 370.652 67.068L369.812 67.752L326 111.576L306.248 91.812L305.408 91.116C304.252 90.3198 302.854 89.9539 301.456 90.0821C300.059 90.2102 298.75 90.8243 297.758 91.8174C296.767 92.8105 296.155 94.1199 296.028 95.5177C295.902 96.9156 296.27 98.3134 297.068 99.468L297.752 100.308L321.752 124.308L322.592 124.992C323.594 125.683 324.783 126.054 326 126.054C327.217 126.054 328.406 125.683 329.408 124.992L330.248 124.296L378.296 76.248L378.992 75.408C379.791 74.2523 380.158 72.8529 380.031 71.4539C379.904 70.0548 379.29 68.7448 378.296 67.752Z" fill="#1E1E1E"/>
<path d="M580 0C605.461 0 629.879 10.1143 647.882 28.1178C665.886 46.1212 676 70.5392 676 96C676 121.461 665.886 145.879 647.882 163.882C629.879 181.886 605.461 192 580 192C554.539 192 530.121 181.886 512.118 163.882C494.114 145.879 484 121.461 484 96C484 70.5392 494.114 46.1212 512.118 28.1178C530.121 10.1143 554.539 0 580 0ZM620.296 67.752C619.302 66.7629 617.994 66.153 616.598 66.028C615.201 65.9031 613.805 66.271 612.652 67.068L611.812 67.752L568 111.576L548.248 91.812L547.408 91.116C546.252 90.3198 544.854 89.9539 543.456 90.0821C542.059 90.2102 540.75 90.8243 539.758 91.8174C538.767 92.8105 538.155 94.1199 538.028 95.5177C537.902 96.9156 538.27 98.3134 539.068 99.468L539.752 100.308L563.752 124.308L564.592 124.992C565.594 125.683 566.783 126.054 568 126.054C569.217 126.054 570.406 125.683 571.408 124.992L572.248 124.296L620.296 76.248L620.992 75.408C621.791 74.2523 622.158 72.8529 622.031 71.4539C621.904 70.0548 621.29 68.7448 620.296 67.752Z" fill="#FF4200"/>
</svg>
