<svg width="10" height="11" viewBox="0 0 10 11" fill="none" xmlns="http://www.w3.org/2000/svg">
<path d="M5 0.945313C5.97968 0.945256 6.93779 1.233 7.75533 1.77281C8.57287 2.31262 9.21382 3.08071 9.59856 3.98167C9.98331 4.88264 10.0949 5.87678 9.91948 6.84062C9.74405 7.80447 9.28935 8.69554 8.61183 9.40317C7.93431 10.1108 7.06384 10.6038 6.10853 10.8209C5.15322 11.0381 4.15517 10.9698 3.23834 10.6246C2.3215 10.2793 1.52629 9.67239 0.951458 8.87908C0.37663 8.08577 0.0475181 7.14107 0.00500011 6.16231L0 5.94531L0.00500011 5.72831C0.0609194 4.44106 0.611607 3.22509 1.54222 2.33397C2.47284 1.44285 3.71154 0.945387 5 0.945313Z" fill="black"/>
</svg>
