<svg width="43" height="42" viewBox="0 0 43 42" fill="none" xmlns="http://www.w3.org/2000/svg">
<path d="M3.77802 3.83337C0.867188 6.73317 0.867188 11.3701 0.867188 20.6576V22.299C0.867188 31.5729 0.867188 36.2098 3.77802 39.1233C6.71658 41.9957 11.4155 41.9958 20.8272 41.9958H22.4905C31.8884 41.9958 36.5873 41.9957 39.5397 39.1233C42.4505 36.2235 42.4505 31.5866 42.4505 22.299V20.6576C42.4505 11.3838 42.4505 6.74685 39.5397 3.83337C36.6011 0.960938 31.9022 0.960938 22.4905 0.960938H20.8272C11.4294 0.960938 6.73044 0.960938 3.77802 3.83337ZM7.88091 13.4492H12.6491C12.8016 21.2732 16.2946 24.5833 19.0668 25.2672V13.4492H23.544V20.1926C26.2746 19.9053 29.1577 16.8277 30.128 13.4355H34.5913C34.2271 15.1914 33.5 16.8543 32.4554 18.3205C31.4109 19.7867 30.0712 21.0247 28.5201 21.9571C30.2514 22.8071 31.7804 24.0098 33.0061 25.4858C34.2318 26.9618 35.1264 28.6775 35.6309 30.5197H30.7102C29.6567 27.2779 27.0231 24.7611 23.544 24.4192V30.5197H22.9895C13.5085 30.5197 8.10269 24.1182 7.88091 13.4492Z" fill="black"/>
</svg>
