<svg width="58" height="50" viewBox="0 0 58 50" fill="none" xmlns="http://www.w3.org/2000/svg">
<path d="M57.3701 11.1337C56.4014 9.41176 54.6523 8.52387 52.9032 8.55077C53.1454 7.34001 52.9839 6.04852 52.365 4.97229C50.6159 1.93192 46.6065 1.3938 44.1308 3.86914C43.9963 4.00367 43.8618 4.16511 43.7003 4.29964C43.5927 3.73461 43.4043 3.1965 43.1352 2.68528C41.3861 -0.381991 37.3498 -0.920109 34.8741 1.58214C33.6094 2.87362 32.3985 4.19201 31.1338 5.4835C27.3396 9.33104 23.5185 13.2055 19.2669 16.5687C18.1905 17.4028 17.1142 18.2369 15.8225 18.7212C14.6923 19.1248 14.0465 18.9634 13.3469 17.9947C12.8087 17.1876 12.2974 16.3804 11.8131 15.5732C10.7098 13.7974 9.4989 12.1293 7.77672 10.8916C6.21599 9.78844 4.52072 9.54629 2.77163 10.4611C0.995635 11.3759 0.0538181 12.8557 0 14.8737C0 16.1113 0.457454 17.1876 1.10327 18.2369C1.91054 19.5284 2.74472 20.8199 3.44436 22.1921C4.27854 23.7795 4.70908 25.5284 4.65527 27.358C4.60145 30.3446 4.84363 33.3311 5.70472 36.2101C7.45381 42.0217 11.0596 46.1921 16.6836 48.533C20.8276 50.2549 25.0792 50.3626 29.3847 49.367C33.7709 48.3446 37.5112 46.2191 40.5789 42.9096L40.6058 42.8827C42.5432 40.7841 44.5614 38.8199 46.7141 36.9634L48.4094 35.4836C48.5708 35.3491 48.6785 35.2414 48.7861 35.1338C50.8312 33.2773 52.9032 31.4477 54.9214 29.5643C56.4821 28.1114 56.8588 25.6629 55.8901 23.7795C55.1367 22.2728 53.7912 21.3311 52.3112 21.0351C54.3294 19.2055 55.9977 17.6181 56.6166 16.9992C58.1505 15.4118 58.4196 12.9633 57.3701 11.1337ZM54.9483 15.5732L38.8836 30.3715C38.8567 30.3984 38.6145 30.6136 38.3185 30.8558C37.8072 31.2863 37.7803 32.0934 38.2647 32.5508L38.2916 32.5778C38.7221 33.0082 39.4218 33.0083 39.8523 32.6047C43.0276 29.7795 46.149 26.8737 49.2974 24.0217C50.4814 22.9454 51.9614 22.8109 53.1185 23.7257C54.5177 24.8289 54.5985 26.8468 53.253 28.0576C50.885 30.21 48.517 32.3356 46.149 34.4612C44.5345 35.9141 40.0676 39.9769 39.7985 40.3267C36.6232 44.1204 32.6138 46.4343 27.7701 47.3222C23.1687 48.1563 18.8363 47.4567 14.8269 45.0083C14.7462 44.9545 14.6654 44.9007 14.5847 44.8469C11.6516 43.1249 9.25671 39.1159 8.71853 37.932C7.37308 34.8917 6.88872 31.663 6.91563 28.3535C6.94254 26.1741 6.72726 24.0217 5.86617 22.0037C5.11272 20.2548 4.14399 18.6136 3.04072 17.053C2.55636 16.3535 2.20654 15.6001 2.26036 14.7391C2.31418 13.5822 2.98691 12.8288 3.98254 12.3445C5.00508 11.8602 5.89308 12.2638 6.70035 12.9364C8.09962 14.0665 9.09526 15.5194 10.0371 17.0261C10.7098 18.1562 11.4363 19.2593 12.3513 20.2548C13.616 21.654 13.6967 23.8602 12.6742 25.7167C12.5934 25.8782 12.4858 26.0127 12.4051 26.1741C12.0553 26.793 12.1898 27.4656 12.728 27.7885C13.2931 28.1383 13.9658 27.9768 14.3156 27.3849C15.4727 25.5284 15.9571 23.5374 15.392 21.358C15.3651 21.3042 15.3651 21.2504 15.3651 21.1427C15.5803 21.0889 15.7956 21.0351 16.0109 20.9813C17.4371 20.6584 18.5942 19.8782 19.7243 19.071C22.0654 17.3759 24.272 15.4656 26.3171 13.4207C29.6807 10.0844 33.0174 6.69426 36.3272 3.33103C37.4843 2.17407 39.0181 1.93192 40.2559 2.81981C41.7629 3.89605 41.9243 5.9409 40.6327 7.25929C38.3185 9.5732 36.0043 11.8871 33.6901 14.2279C32.3447 15.5732 30.9992 16.8916 29.6538 18.2369C29.2501 18.6405 29.2232 19.3131 29.6269 19.7436C30.0305 20.201 30.7301 20.2279 31.1876 19.8244L35.5469 15.7077C38.9105 12.3714 42.2472 8.98127 45.557 5.61803C46.7141 4.46107 48.2479 4.21892 49.4858 5.10682C50.9927 6.18305 51.1541 8.2279 49.8625 9.54629C47.5483 11.8602 45.2341 14.1741 42.9199 16.5149C42.0588 17.3759 41.1978 18.21 40.3367 19.071L36.085 23.1607C35.6007 23.6181 35.5738 24.3715 36.0312 24.8558C36.5156 25.367 37.3229 25.3939 37.8072 24.8827L41.7359 20.8737C42.7047 19.932 43.6465 18.9634 44.6152 17.9947L45.2879 17.349C45.4494 17.1876 45.5301 17.0799 45.6647 16.9723C47.5483 15.0889 49.4319 13.2324 51.2887 11.3221C52.3381 10.5956 53.549 10.5418 54.5985 11.2683C56.0247 12.2907 56.213 14.3086 54.9483 15.5732Z" fill="black"/>
</svg>
