<svg width="50" height="52" viewBox="0 0 50 52" fill="none" xmlns="http://www.w3.org/2000/svg">
<path d="M37.0035 15.4632C40.0439 16.1786 41.9371 19.1549 40.9905 22.3028C42.396 22.5317 43.6008 23.19 44.4039 24.3919C45.2071 25.5938 45.4078 26.9103 45.0349 28.3411C45.2071 28.3984 45.3505 28.427 45.4939 28.4842C49.2228 29.6576 50.4562 34.2936 47.8173 37.1554C45.752 39.3876 43.7442 41.677 41.6502 43.9092C38.5237 47.2861 34.6514 49.4896 30.1767 50.5199C25.7594 51.5501 21.3707 51.4356 17.1255 49.6613C11.3313 47.2574 7.63112 42.9934 5.85272 37.0409C4.96352 34.0933 4.70536 31.0312 4.79142 27.9691C4.8201 26.109 4.41853 24.3347 3.52932 22.6748C2.78354 21.3012 1.95171 19.9562 1.11988 18.6397C0.460145 17.5809 -0.0274813 16.4648 0.00120265 15.177C0.0298866 13.1165 1.03382 11.5998 2.84091 10.6554C4.61931 9.71101 6.36903 9.96857 7.97533 11.0847C9.75373 12.3438 11.0158 14.0609 12.1345 15.8924C12.6508 16.7224 13.1384 17.5523 13.7121 18.3536C14.4292 19.3552 15.0889 19.5269 16.265 19.0976C17.5844 18.6111 18.7031 17.7526 19.8218 16.8941C24.1817 13.5172 28.0828 9.56792 31.9838 5.61868C33.2745 4.30227 34.5079 2.92862 35.8274 1.6122C38.3803 -0.934774 42.5108 -0.391038 44.2892 2.72829C45.4078 4.6743 45.121 7.24989 43.5721 8.85248C41.5355 10.9416 39.4703 12.9734 37.405 15.0339C37.2616 15.177 37.1756 15.2915 37.0035 15.4632ZM15.0029 45.9697C15.0889 46.0269 15.175 46.0841 15.261 46.1414C19.3915 48.6597 23.8375 49.3752 28.5417 48.5166C33.504 47.6009 37.6345 45.2256 40.8758 41.3336C41.1626 40.9902 41.4781 40.6468 41.8223 40.3033C39.1261 39.3876 37.7492 37.556 37.7779 34.7229C36.1429 34.6657 34.7948 34.0075 33.7909 32.7197C32.7582 31.4319 32.5001 29.9724 32.7869 28.3698C32.6435 28.3411 32.5288 28.2839 32.414 28.2553C30.4061 27.7974 29.058 26.5955 28.4556 24.6495C27.8533 22.7035 28.2549 20.9292 29.6891 19.4697C31.2954 17.8098 32.9303 16.2072 34.5653 14.6046C36.9461 12.2294 39.3269 9.8541 41.7076 7.47883C43.0558 6.1338 42.855 4.01609 41.3347 2.92862C40.0726 2.04147 38.495 2.24179 37.319 3.44373C33.9056 6.87786 30.4922 10.3406 27.0214 13.7747C24.8988 15.8638 22.6615 17.8098 20.252 19.5555C19.1047 20.3854 17.9 21.1867 16.4945 21.5301C16.265 21.5874 16.0355 21.6446 15.806 21.7018C15.806 21.8163 15.8347 21.8735 15.8347 21.9308C16.4084 24.163 15.9208 26.1948 14.716 28.1122C14.3432 28.7132 13.6547 28.8849 13.0811 28.5415C12.5074 28.1981 12.3927 27.5112 12.7369 26.8816C12.8229 26.7386 12.909 26.5668 13.0237 26.4238C14.085 24.4778 13.999 22.217 12.7082 20.7861C11.7903 19.7558 11.0445 18.6397 10.3274 17.4664C9.38084 15.8924 8.34822 14.4329 6.91403 13.2596C6.08219 12.6014 5.19299 12.1721 4.13169 12.6586C3.09907 13.1451 2.41065 13.9178 2.35328 15.1198C2.3246 16.0069 2.66881 16.7796 3.15643 17.495C4.27511 19.0976 5.27904 20.7575 6.05351 22.5604C6.94271 24.6495 7.1435 26.8244 7.1435 29.0566C7.11481 32.4335 7.60244 35.7531 9.00795 38.8725C9.52426 40.103 12.0198 44.1954 15.0029 45.9697ZM38.9253 20.8147C38.9253 19.4697 38.2082 18.3822 37.1182 17.9243C35.9995 17.4664 34.9382 17.5809 34.049 18.4108C33.1311 19.2693 32.2419 20.1565 31.3814 21.0722C29.8612 22.6748 30.5783 25.2504 32.7009 25.88C33.2745 26.0517 33.9056 26.1662 34.4219 25.7656C35.5119 24.9356 36.5732 24.0771 37.6058 23.19C38.3516 22.5604 38.8679 21.7018 38.9253 20.8147ZM35.0243 29.1424C35.0243 30.8881 36.0856 32.1473 37.4624 32.319C38.1221 32.4049 38.6958 32.2904 39.2121 31.7467C40.13 30.745 41.1339 29.8006 42.1092 28.8563C43.1131 27.826 43.1705 26.3951 42.2239 25.3935C41.4208 24.535 39.8718 24.2774 38.7819 25.279C37.8927 26.0803 36.9461 26.7958 36.0282 27.5112C35.3398 28.0263 35.0529 28.6846 35.0243 29.1424ZM42.9984 38.1284C43.4 37.9853 43.9163 37.9281 44.2031 37.6419C44.9489 36.9551 45.6373 36.1824 46.2684 35.3811C46.9855 34.4653 47.1289 33.4065 46.6412 32.3476C46.1536 31.2888 45.2644 30.6878 44.1171 30.6019C43.8876 30.5733 43.6007 30.6878 43.4573 30.8309C42.6255 31.6322 41.8223 32.4621 40.9905 33.2634C40.1874 34.0647 39.9292 35.2094 40.3882 36.2396C40.7897 37.2985 41.851 38.0139 42.9984 38.1284Z" fill="black"/>
</svg>
