<svg width="58" height="50" viewBox="0 0 58 50" fill="none" xmlns="http://www.w3.org/2000/svg">
<path d="M53.621 23.0265C53.452 22.9586 53.2493 22.9246 53.0804 22.8567C53.4858 21.1584 53.2493 19.596 52.3371 18.1695C51.391 16.7429 50.0058 15.9617 48.3164 15.69C49.4314 11.9198 47.2353 8.42134 43.6201 7.5722C43.1133 7.50427 42.6403 7.50427 42.1335 7.5722C42.8092 4.07374 40.6806 0.914947 37.2682 0.0997737C34.6328 -0.40971 32.4367 1.11874 30.7136 2.71512C30.4771 2.91892 30.2743 3.15667 30.0378 3.36047C27.639 5.70409 26.1523 7.09668 23.3481 9.33841C22.0642 10.3574 20.7465 11.3763 19.1585 11.9538C17.7732 12.4632 16.9961 12.2594 16.1515 11.0707C15.4757 10.1196 14.9014 9.13461 14.2932 8.14961C12.9755 5.97582 11.4889 3.93788 9.39413 2.4434C7.50207 1.08478 5.44108 0.813051 3.3463 1.93391C1.21774 3.05478 0.0689901 4.82099 0.00141659 7.30047C-0.0323701 8.82892 0.542004 10.1196 1.3191 11.4103C2.29891 12.9727 3.31252 14.5691 4.15719 16.1994C5.17079 18.1355 5.67759 20.2414 5.6438 22.4831C5.57623 26.1174 5.84652 29.7177 6.89391 33.2502C8.98869 40.315 13.381 45.3759 20.1721 48.229C25.1725 50.3009 30.3081 50.4367 35.5451 49.2479C40.8496 48.0252 45.377 45.4438 49.0598 41.4019C51.4924 38.7526 53.8913 36.0353 56.3239 33.386C59.4661 29.9215 57.9795 24.4191 53.621 23.0265ZM49.7355 19.3243C50.8505 20.5131 50.7829 22.2114 49.6003 23.4341C48.4516 24.5889 47.3028 25.6758 46.1879 26.8646C45.5797 27.51 44.904 27.6458 44.1269 27.5439C42.5051 27.3062 41.255 25.8457 41.255 23.7738C41.255 23.2303 41.6267 22.4491 42.4038 21.8038C43.5187 20.9546 44.6337 20.1055 45.6473 19.1545C46.965 18.0336 48.7557 18.3053 49.7355 19.3243ZM43.6877 10.4932C45.0053 11.0367 45.8162 12.3274 45.8162 13.9238C45.7824 14.9767 45.1743 15.9617 44.262 16.7769C43.0457 17.8298 41.7956 18.8488 40.5117 19.8338C39.9035 20.3093 39.1602 20.1734 38.4845 19.9696C35.9843 19.2224 35.1396 16.1655 36.9303 14.2634C37.9439 13.1765 38.9913 12.0896 40.0725 11.1046C41.1199 10.0856 42.37 9.94979 43.6877 10.4932ZM37.3695 3.02081C38.6872 3.56426 39.4981 4.85495 39.4981 6.45133C39.4643 7.50427 38.8562 8.48927 37.9439 9.30444C36.7276 10.3574 35.4775 11.3763 34.1936 12.3613C33.5854 12.8369 32.8421 12.701 32.1664 12.4972C29.6662 11.75 28.8215 8.69306 30.6122 6.79099C30.6798 6.68909 30.7811 6.62116 30.8825 6.51926C31.2204 6.21357 31.5244 5.87392 31.8623 5.56823C32.5718 4.85495 33.2813 4.17564 33.9571 3.46236C34.9369 2.61323 36.1194 2.51133 37.3695 3.02081ZM48.1813 38.2431C44.3634 42.8284 39.4981 45.6816 33.653 46.7685C28.112 47.7874 22.8412 46.9383 18.0097 43.9493C17.9084 43.8814 17.807 43.8134 17.7057 43.7455C14.1581 41.6397 11.2524 36.7826 10.6105 35.356C8.98869 31.6538 8.38053 27.7477 8.41431 23.7058C8.4481 21.0565 8.17781 18.4412 7.13042 15.9957C6.21818 13.8558 5.03564 11.8858 3.71796 9.98375C3.1098 9.13461 2.70436 8.21754 2.77193 7.16461C2.8395 5.73806 3.65038 4.82099 4.86671 4.24357C6.11682 3.66616 7.1642 4.17564 8.14402 4.95685C9.83336 6.34944 11.0497 8.08168 12.1646 9.94979C13.0093 11.3424 13.854 12.667 14.9689 13.8898C16.5231 15.5881 16.6245 18.2713 15.3744 20.5131C15.273 20.6829 15.1717 20.8867 15.0365 21.0565C14.5973 21.8038 14.7662 22.6189 15.442 23.0265C16.1177 23.4341 16.9286 23.2303 17.3678 22.517C18.7868 20.2414 19.3612 17.8298 18.6855 15.1805C18.6517 15.1126 18.6517 15.0446 18.6517 14.9088C18.922 14.8408 19.1923 14.7729 19.4626 14.705C21.1181 14.2974 22.5372 13.3463 23.8886 12.3613C24.936 11.5801 25.9834 10.765 26.997 9.94979C27.0646 10.2894 27.1322 10.5951 27.2335 10.9348C27.943 13.2105 29.5648 14.671 31.8961 15.2144C32.0312 15.2484 32.2677 15.2824 32.538 15.3163C32.8083 15.3503 33.0786 15.3503 33.3489 15.3163C33.1462 16.3013 33.2138 17.3203 33.5516 18.4072C34.2612 20.6829 35.8829 22.1434 38.2142 22.6869C38.3494 22.7208 38.4845 22.7548 38.6534 22.8227C38.2818 24.7248 38.6197 26.491 39.836 27.9855C41.0185 29.48 42.6065 30.2612 44.5323 30.3631C44.4986 33.7257 46.0865 35.8995 49.2963 36.9864C48.8908 37.4279 48.5192 37.8355 48.1813 38.2431ZM54.4994 31.2122C53.7561 32.1633 52.9452 33.0803 52.0668 33.8955C51.7289 34.2352 51.1208 34.2691 50.6477 34.4729C49.2963 34.371 48.0799 33.4879 47.5394 32.2652C47.0326 31.0424 47.3028 29.6838 48.2489 28.7327C49.1949 27.7477 50.1747 26.7967 51.1545 25.8457C51.3573 25.6758 51.6951 25.54 51.9316 25.5739C53.3169 25.6758 54.3305 26.3891 54.9049 27.6458C55.513 28.8686 55.3441 30.1253 54.4994 31.2122Z" fill="black"/>
</svg>
