<svg width="58" height="50" viewBox="0 0 58 50" fill="none" xmlns="http://www.w3.org/2000/svg">
<path d="M57.3631 11.1457C56.3918 9.4167 54.665 8.52519 52.9112 8.5522C53.154 7.33651 52.9921 6.06678 52.3716 4.95915C50.6178 1.90641 46.6246 1.3661 44.1423 3.85152C44.0074 3.98659 43.8725 4.14869 43.7106 4.28376C43.6027 3.71644 43.4138 3.17613 43.144 2.66284C41.3633 -0.362889 37.3431 -0.930214 34.8878 1.58222C33.6197 2.85195 32.4055 4.20272 31.1644 5.47244C27.3331 9.33565 23.5287 13.1989 19.2927 16.5758C18.2134 17.4133 17.1342 18.2507 15.8391 18.71C14.7059 19.1152 14.0583 18.9531 13.3568 17.9806C12.8172 17.1971 12.3045 16.3867 11.8189 15.5762C10.7127 13.7932 9.4985 12.1182 7.77171 10.9025C6.2068 9.79491 4.50698 9.55177 2.78019 10.4703C0.999433 11.3888 0.0550924 12.8747 0.00113007 14.8738C-0.0258511 16.1165 0.432829 17.1971 1.10736 18.2507C1.91679 19.5475 2.75321 20.8442 3.45472 22.195C4.29114 23.7889 4.69585 25.5179 4.66887 27.3549C4.61491 30.3537 4.85774 33.3254 5.72114 36.216C7.47491 42.0513 11.0904 46.2117 16.7025 48.535C20.8306 50.237 25.0936 50.3721 29.4106 49.3725C33.7816 48.3459 37.5319 46.2387 40.6078 42.9158C42.6314 40.7276 44.601 38.5123 46.5976 36.3241C48.918 33.7846 48.1355 29.8133 45.2755 28.2465L50.4829 23.2486C50.6178 23.0865 50.7257 22.9784 50.8336 22.8704C52.7763 20.9253 54.7459 18.9802 56.6886 16.981C58.1455 15.4411 58.4154 12.9827 57.3631 11.1457ZM45.0597 34.5681C44.4391 35.3515 43.7916 36.1079 43.0631 36.7833C42.7663 37.0535 42.2806 37.1075 41.8759 37.2426C40.7697 37.1345 39.7444 36.4321 39.3127 35.4055C38.881 34.406 39.1238 33.2983 39.9063 32.4879C40.6887 31.6774 41.4982 30.894 42.3076 30.1105C42.4695 29.9754 42.7393 29.8674 42.9551 29.8674C44.0884 29.9484 44.9518 30.5157 45.4104 31.5693C45.8961 32.65 45.7612 33.6766 45.0597 34.5681ZM54.9348 15.6032L38.881 30.4077C38.5572 30.6508 38.3144 30.8669 38.1795 31.002C37.6938 31.5153 36.9114 32.3528 36.8034 33.8657C36.7765 36.6483 38.0985 38.4313 40.7427 39.3228C40.4189 39.674 40.1221 39.9982 39.8253 40.3494C36.6685 44.1315 32.6483 46.4819 27.8187 47.3734C23.2319 48.2109 18.8879 47.5084 14.8678 45.05C14.7868 44.996 14.7059 44.942 14.6249 44.888C11.711 43.159 9.28265 39.1607 8.77001 37.972C7.42095 34.9193 6.93529 31.7044 6.96227 28.3815C6.98925 26.1933 6.7734 24.0591 5.91001 22.0329C5.15453 20.2769 4.18321 18.656 3.10396 17.0891C2.6183 16.3867 2.26755 15.6302 2.32151 14.7658C2.37547 13.6041 3.05 12.8477 4.04831 12.3614C5.07359 11.8751 5.96397 12.2803 6.74642 12.9557C8.14944 14.0904 9.14775 15.5492 10.0651 17.0621C10.7396 18.1967 11.4681 19.3043 12.3855 20.3039C13.6536 21.7087 13.7345 23.897 12.7093 25.761C12.6283 25.9231 12.5204 26.0582 12.4394 26.2203C12.0887 26.8146 12.2236 27.49 12.7632 27.8412C13.3028 28.1924 14.0044 28.0303 14.3551 27.436C15.5153 25.5719 16.001 23.5728 15.4344 21.3845C15.4074 21.3305 15.4074 21.2765 15.4074 21.1684C15.6232 21.1144 15.8391 21.0603 16.0549 21.0063C17.431 20.6551 18.5912 19.8987 19.7244 19.0882C22.0717 17.3862 24.2572 15.4952 26.3078 13.442C29.6804 10.1191 32.9991 6.71515 36.3178 3.33822C37.478 2.17656 38.9889 1.93342 40.23 2.82493C41.714 3.87853 41.9029 5.95872 40.6078 7.25546C38.2874 9.57879 35.967 11.9021 33.6466 14.2254C32.2976 15.5762 30.9485 16.9 29.6265 18.2507C29.2217 18.656 29.1948 19.3314 29.5995 19.7636C30.0042 20.2229 30.7057 20.2499 31.1644 19.8447L35.5353 15.7383C38.908 12.4154 42.2267 9.01147 45.5453 5.63454C46.7055 4.47287 48.2165 4.22973 49.4576 5.12124C50.9416 6.17484 51.1304 8.25503 49.8353 9.55177C47.515 11.8751 45.1946 14.1984 42.8742 16.5218C42.0108 17.3862 41.1474 18.2237 40.284 19.0882L36.048 23.1946C35.5623 23.6538 35.5353 24.4103 35.994 24.8965C36.4797 25.4098 37.2891 25.4368 37.7748 24.9236L41.741 20.8983C42.7123 19.9527 43.6567 18.9802 44.601 18.0346L45.2755 17.3862C45.4374 17.2242 45.5184 17.1161 45.6533 17.008C47.5419 15.117 49.4306 13.2529 51.2923 11.3618C52.3176 10.6324 53.5587 10.5784 54.584 11.3078C56.014 12.3073 56.2029 14.3335 54.9348 15.6032Z" fill="black"/>
</svg>
