<svg width="53" height="50" viewBox="0 0 53 50" fill="none" xmlns="http://www.w3.org/2000/svg">
<path d="M52.3431 4.9344C50.6066 1.89664 46.5824 1.34432 44.1018 3.82976C43.964 3.96784 43.8262 4.10592 43.6883 4.27161C43.5781 3.71929 43.3851 3.16698 43.1095 2.66989C41.3731 -0.367868 37.3489 -0.920187 34.8682 1.56525C33.6003 2.83558 32.3876 4.18877 31.1197 5.4591C27.316 9.32533 23.5123 13.1916 19.2676 16.5607C18.1927 17.4168 17.1177 18.2453 15.8223 18.7148C14.6922 19.129 14.0582 18.9633 13.3416 17.9691C12.7903 17.1959 12.2942 16.3674 11.7981 15.5665C10.6956 13.7715 9.48279 12.1145 7.74633 10.8718C6.17524 9.76719 4.49391 9.51865 2.75744 10.43C0.993419 11.3689 0.0287179 12.8326 0.00115504 14.8485C-0.0264079 16.0912 0.442161 17.1959 1.10367 18.2177C1.93056 19.5156 2.72988 20.8136 3.44652 22.1668C4.30097 23.7685 4.68685 25.5083 4.65928 27.3309C4.60416 30.3411 4.85222 33.296 5.70667 36.1957C7.44314 42.0226 11.0539 46.1926 16.7043 48.54C20.8387 50.2522 25.0834 50.3627 29.4108 49.3685C33.7933 48.3467 37.5418 46.2203 40.6013 42.9063C42.6134 40.7247 44.5979 38.4878 46.5824 36.3061C49.1458 33.4893 47.933 28.9603 44.3223 27.828C44.1845 27.7728 44.0191 27.7452 43.8537 27.6899C44.212 26.2815 43.9915 25.0112 43.2198 23.8237C42.5583 22.8295 41.6211 22.222 40.5186 21.9182L45.2594 17.3616C45.3972 17.1959 45.5075 17.0854 45.6177 16.975C47.6298 14.959 49.6419 12.9706 51.6264 10.9271C53.17 9.35295 53.418 6.8399 52.3431 4.9344ZM42.9441 29.8992C44.0742 29.9821 44.9287 30.562 45.4248 31.6114C45.9209 32.6608 45.7831 33.6826 45.0665 34.5939C44.4601 35.3672 43.7986 36.1128 43.0544 36.8032C42.7788 37.0794 42.2826 37.1346 41.8692 37.2727C40.7667 37.1622 39.7468 36.4718 39.3058 35.45C38.8924 34.4559 39.1129 33.3236 39.9122 32.5504C40.7115 31.7495 41.4833 30.9486 42.3102 30.1754C42.448 29.9821 42.7236 29.8716 42.9441 29.8992ZM41.0974 24.7903C42.007 25.7844 41.9519 27.1929 40.9872 28.187C40.05 29.126 39.0853 30.0373 38.1758 31.0315C37.6796 31.5562 37.1284 31.6666 36.4669 31.5838C35.1438 31.3905 34.0965 30.1754 34.0965 28.4632C34.0965 28.0213 34.3996 27.3586 35.0336 26.8615C35.9432 26.1435 36.8527 25.4531 37.7348 24.6798C38.8373 23.7132 40.3257 23.9618 41.0974 24.7903ZM49.8624 9.51865C47.5471 11.8384 45.2319 14.1581 42.9166 16.4779C41.3455 18.052 39.7193 19.6261 38.1758 21.2554C38.1758 21.2554 33.1869 25.8121 32.7183 26.2263C32.2497 26.6682 31.9465 27.6623 31.9465 27.6623C31.6434 29.2364 31.919 30.6725 32.9112 31.9152C33.9035 33.1579 35.199 33.7931 36.7976 33.8759C36.7701 36.6375 38.0931 38.4326 40.7391 39.3439C40.4084 39.7029 40.1052 40.0343 39.8295 40.3657C36.6598 44.1491 32.6356 46.4964 27.8121 47.3801C23.2091 48.2086 18.8817 47.5182 14.8576 45.0604C14.7749 45.0052 14.6922 44.9499 14.6095 44.8947C11.6878 43.1825 9.26229 39.1506 8.76615 37.9907C7.41557 34.9253 6.91944 31.7219 6.97457 28.3803C7.00213 26.1987 6.78163 24.0446 5.92718 22.0287C5.18298 20.2613 4.19071 18.6319 3.11576 17.0854C2.61963 16.395 2.28888 15.6218 2.31644 14.7657C2.37156 13.6058 3.03307 12.8326 4.0529 12.3631C5.07273 11.8936 5.95474 12.3079 6.75406 12.943C8.15977 14.0753 9.15204 15.5389 10.0892 17.0578C10.7782 18.1901 11.4949 19.2947 12.4045 20.2889C13.6723 21.6973 13.755 23.9066 12.7352 25.7568C12.6525 25.9225 12.5698 26.0606 12.4596 26.1987C12.1013 26.8062 12.2391 27.469 12.7903 27.828C13.3416 28.1594 14.0307 28.0213 14.389 27.4138C15.5466 25.5359 16.0428 23.5476 15.4639 21.3659C15.4364 21.3107 15.4364 21.2554 15.4364 21.145C15.6569 21.0897 15.8774 21.0345 16.0979 20.9793C17.476 20.6203 18.6337 19.8746 19.7638 19.0462C22.1066 17.334 24.3116 15.4285 26.3513 13.3849C29.714 10.0433 33.0491 6.64659 36.3566 3.27744C37.5143 2.11757 39.0302 1.86902 40.2705 2.75274C41.7589 3.82976 41.9519 5.87334 40.6289 7.19891C38.3136 9.51865 35.9983 11.8384 33.683 14.1581C32.3324 15.5113 30.9818 16.8369 29.6588 18.1901C29.2454 18.6043 29.2454 19.2671 29.6313 19.7089C30.0447 20.1784 30.7338 20.206 31.2024 19.7642L35.5848 15.677C38.9475 12.3355 42.2826 8.93871 45.5902 5.56956C46.7478 4.40969 48.2638 4.18877 49.5041 5.04486C50.9649 6.1495 51.1579 8.2207 49.8624 9.51865Z" fill="black"/>
</svg>
