<svg width="61" height="42" viewBox="0 0 61 42" fill="none" xmlns="http://www.w3.org/2000/svg">
<path d="M24.1014 30.2715L39.7371 21.4783L24.1014 12.6852V30.2715ZM58.9278 7.32133C59.3195 8.69893 59.5906 10.5455 59.7714 12.8903C59.9823 15.2352 60.0727 17.2576 60.0727 19.0163L60.2534 21.4783C60.2534 27.8974 59.7714 32.6164 58.9278 35.6354C58.1747 38.2733 56.4273 39.9733 53.7159 40.7061C52.3 41.0871 49.7091 41.3509 45.7323 41.5268C41.8159 41.732 38.2308 41.8199 34.9169 41.8199L30.1267 41.9958C17.5036 41.9958 9.64055 41.5268 6.5375 40.7061C3.82609 39.9733 2.07874 38.2733 1.32558 35.6354C0.933928 34.2578 0.662788 32.4112 0.482028 30.0663C0.271141 27.7215 0.18076 25.6991 0.18076 23.9404L0 21.4783C0 15.0593 0.482028 10.3403 1.32558 7.32133C2.07874 4.68338 3.82609 2.98337 6.5375 2.2506C7.95345 1.86957 10.5443 1.60577 14.5211 1.42991C18.4375 1.22473 22.0226 1.1368 25.3366 1.1368L30.1267 0.960938C42.7498 0.960938 50.6129 1.42991 53.7159 2.2506C56.4273 2.98337 58.1747 4.68338 58.9278 7.32133Z" fill="black"/>
</svg>
